<?xml version="1.0" encoding="utf-8"?>
<!-- Generator: Adobe Illustrator 22.0.1, SVG Export Plug-In . SVG Version: 6.00 Build 0)  -->
<svg version="1.1" id="Layer_1" xmlns="http://www.w3.org/2000/svg" xmlns:xlink="http://www.w3.org/1999/xlink" x="0px" y="0px"
	 viewBox="0 0 928.813 1780.276" enable-background="new 0 0 928.813 1780.276" xml:space="preserve">
<path d="M154.579,1766.429c-6.05-0.87-12.11-1.4-18.25-0.99c-3.46,0.24-6.96,0.17-10.43-0.06c-6.32-0.42-12.62-1.14-18.97-0.17
	c-1.63,0.25-3.4,0.17-5.01-0.18c-10-2.19-20.05-3.25-30.27-1.98c-0.81,0.1-1.65-0.16-2.48-0.24l-64.24-4.5
	c0.15-3.95,0.05-34.43,0.2-38.38c0.38-9.8,1.01-19.59,1.2-29.39c0.09-5.05,0.75-10,1.32-14.99c0.77-6.76,1.36-13.56,1.49-20.36
	c0.11-6.08-0.51-12.17-0.8-18.25c-0.01-0.36,0.1-0.72,0.17-1.07c0.82-4.08,1.95-8.14,2.39-12.27c0.48-4.49,0.43-9.05,0.4-13.58
	c-0.02-3.34-0.5-6.68-0.55-10.03c-0.09-6.22,0-12.44-0.04-18.66c-0.02-2.48-0.58-4.85-0.2-7.44c0.84-5.67,1.34-11.47,0.26-17.17
	c-0.77-4.11-0.4-8.05,0.39-12.08c1.49-7.67,2.38-15.38,1.14-23.21c-1.39-8.81-1.32-17.72-0.43-26.52
	c0.94-9.38,2.81-18.67,4.37-27.99c1.43-8.6,3.17-17.16,4.43-25.78c0.66-4.55,0.38-9.22,0.9-13.8c0.74-6.64,2.08-13.23,2.69-19.88
	c0.52-5.69,1-11.44-0.93-17.08c-0.72-2.11-1.18-4.48-1.01-6.68c0.61-8.33,1.51-16.64,2.35-24.96c0.67-6.66,1.38-13.32,2.14-19.98
	c0.62-5.45,1.39-10.89,2.02-16.35c0.34-2.96,0.64-5.93,0.78-8.91c0.22-4.76,0.1-9.56,0.46-14.31c0.58-7.63,1.42-15.23,2.17-22.84
	c0.15-1.55,0.12-3.15,0.55-4.62c2.67-9.18,2.49-18.65,2.93-28.06c0.08-1.54-0.13-3.1-0.07-4.64c0.09-2.75,0.25-5.49,0.44-8.24
	c0.28-4.16,0.61-8.32,0.94-12.48c0.09-1.19,0.25-2.37,0.32-3.56c0.43-6.67,0.04-13.39,1.43-20.01c0.38-1.83,0.39-3.92-0.11-5.7
	c-0.79-2.77-0.41-5.44-0.22-8.18c0.4-5.61,0.77-11.22,1.06-16.83c0.19-3.58,0.07-7.18,0.32-10.76c0.35-5.01,0.86-10.01,1.39-15
	c0.25-2.36,0.46-4.77,1.12-7.03c1.43-4.86,2.05-9.8,2.27-14.84c0.13-2.97,0.71-5.92,1.12-8.87c0.3-2.13,0.71-4.25,0.98-6.38
	c1.07-8.18,2.12-16.36,3.15-24.55c0.34-2.72,0.53-5.46,0.91-8.18c0.55-3.9,1.41-7.77,1.78-11.69c0.37-3.91,0.68-7.91,0.31-11.8
	c-0.31-3.17-0.45-6.12,0.67-9.15c3.49-9.44,6.33-19.09,7.99-29.01c1.26-7.54,1.89-15.19,2.67-22.8c0.33-3.2,0.57-6.44,0.41-9.64
	c-0.25-5.13-0.9-10.24-1.31-15.36c0,0-2.07-28.25,1.36-52.28c3.43-24.03,6.94-38.47,10.06-52.2c4.65-20.51,4.65-37.77,2.26-70.35
	c-1.22-16.56,5.48-22.17,5.48-22.17c0.75-4.47,1.3-8.98,2.25-13.4c0.6-2.79,2.25-5.39,2.62-8.18c0.99-7.58,1.5-15.22,2.29-22.83
	c0.33-3.2,0.71-6.41,1.37-9.55c1.58-7.47,3.51-14.88,4.98-22.38c1.75-8.89,1.91-18.07,4.95-26.73c0.18-0.54,0.15-1.19,0.11-1.78
	c-0.5-8.47,1.3-16.88,0.42-25.41c-0.94-9.12,0.86-18.11,2.32-27.11c2.16-13.35,6.19-26.33,7.71-39.79
	c0.53-4.63,0.71-9.33,1.59-13.89c1.36-7.06,2.27-14.15,2.61-21.33c0.1-1.99,0.8-3.96,1.23-5.93c0.57-2.57,1.25-5.11,1.69-7.7
	c0.67-3.88,1.13-7.8,1.77-11.69c1.06-6.48,2.56-12.9,2.48-19.54c-0.02-1.9,0.16-3.81,0.43-5.7c0.69-4.97,1.51-9.92,2.22-14.89
	c0.26-1.78,0.21-3.6,0.56-5.35c1.55-7.73,3.4-15.4,4.75-23.16c1.6-9.3,2.59-18.7,4.27-27.98c0.84-4.68,0.74-9.28,0.53-13.94
	c-0.07-1.55-0.57-3.14-0.35-4.64c1.38-9.34,2.47-18.75,4.5-27.95c2.18-9.93,4.44-19.81,5.51-29.93c0.31-2.96,0.85-5.9,1.22-8.86
	c0.81-6.51,1.48-13.04,2.41-19.53c0.77-5.32,1.9-10.58,2.78-15.89c0.52-3.18,0.92-6.39,1.26-9.6c0.22-2.02,0.07-4.09,0.36-6.09
	c1.34-9.23,2.29-18.48,2.53-27.8c0.1-4.32-0.25-8.7,0.36-12.94c0.57-4.03,0.22-7.91-0.5-11.75c-2.13-11.5-1.05-22.93,0.67-34.29
	c1.27-8.38,3.58-16.6,5.04-24.96c1.54-8.82,2.92-17.69,3.83-26.59c1.07-10.46,1.52-20.98,2.32-31.46c0.32-4.16,0.81-8.32,1.29-12.47
	c0.64-5.48,0.9-10.92,0.25-16.45c-0.73-6.1-0.19-12.32,1.64-18.11c1.84-5.83,2.72-11.63,2.58-17.65c-0.23-9.58,1.6-18.78,5.3-27.58
	c0.8-1.91,2.14-3.6,3.29-5.47c2.45,1,3.45,3.42,6.03,3.65c2.25,0.2,4.11,0.26,6.07-1.17c2.11-1.55,2.44-3.61,2.43-5.8
	c2.22-0.12,4.21-0.33,6.19-0.32c2.02,0,4.04,0.21,6.06,0.31c1.4,0.07,2.8,0.09,4.19,0.13c1.32,0.05,2.64,0.22,3.95,0.13
	c4.01-0.29,7.99-1.06,12.06-0.15c1.33,0.29,2.84-0.17,4.27-0.28c0.83-0.06,1.66-0.21,2.49-0.18c5.35,0.21,10.71,0.5,16.06,0.69
	c2.39,0.08,4.79-0.15,7.17,0.01c5.01,0.33,9.99,0.91,14.99,1.25c7.64,0.51,15.29,1.11,22.94,1.29c11.26,0.26,22.53,0.22,33.8,0.24
	c22.05,0.04,44.11,0.01,66.16,0.07c5.63,0.02,11.26,0.31,16.89,0.44c4.19,0.1,8.38,0.11,12.56,0.22c4.79,0.12,9.58,0.43,14.36,0.41
	c4.31-0.02,8.62-0.61,12.92-0.57c13.05,0.13,26.1,0.65,39.15,0.63c15.71-0.02,31.41-0.57,47.12-0.63
	c19.44-0.07,38.87,0.14,58.31,0.2c12.94,0.03,25.88-0.07,38.82,0.01c11.74,0.07,23.48,0.24,35.22,0.47
	c13.9,0.26,27.8,0.69,41.7,0.94c5.04,0.09,10.07-0.26,15.1-0.18c13.54,0.22,27.07,0.67,40.6,0.82c10.78,0.12,21.57-0.18,32.36-0.1
	c6.83,0.05,13.65,0.64,20.48,0.64c12.34,0,24.67-0.28,37,0.28c6.34,0.28,12.69,0.52,19.04,0.71c8.01,0.23,16.02,0.28,24.03,0.65
	c3.18,0.14,6.42,0.6,9.26,2.56c-0.1,0.56-0.24,1.01-0.26,1.47c-0.26,5.35,0.24,10.76-1.34,16.02c-0.22,0.73,0.17,1.63,0.26,2.46
	c0.34,2.85,0.61,5.71,1.04,8.55c0.55,3.65,1.21,7.28,1.84,10.92c0.16,0.93,0.57,1.85,0.57,2.77c-0.02,3.24-0.19,6.47-0.26,9.7
	c-0.11,5.76-0.12,11.52-0.31,17.27c-0.25,7.77-0.96,15.54-0.9,23.31c0.11,15.34,0.68,30.68,0.95,46.02
	c0.31,16.78,0.52,33.57,0.73,50.35c0.12,9.96,0.22,19.91,0.24,29.87c0.03,17.63,0.03,35.26,0,52.9c-0.01,7.78,0,15.56-0.2,23.34
	c-0.32,11.82-0.98,23.64-1.19,35.47c-0.26,14.39-0.18,28.79-0.3,43.18c-0.03,2.57-0.53,5.15-0.47,7.72
	c0.2,7.62,0.81,15.25,0.81,22.87c0.01,21.43-0.17,42.86-0.34,64.29c-0.07,9.94-0.34,19.88-0.45,29.83
	c-0.18,16.65-0.31,33.3-0.45,49.95c-0.1,12.95-0.16,25.89-0.3,38.83c-0.2,19.18-0.52,38.36-0.69,57.54
	c-0.22,25.06-0.29,50.13-0.51,75.19c-0.27,29.61-0.63,59.22-0.94,88.82c-0.11,10.19-0.19,20.39-0.3,30.58
	c-0.13,12.34-0.32,24.68-0.41,37.02c-0.09,12.24-0.08,24.48-0.15,36.72c-0.02,1.66-0.58,3.36-0.37,4.97
	c0.86,6.57,0.33,13.1-0.14,19.65c-0.15,2.09,0.26,4.19,0.26,6.52c0,4.8,0.01,9.52-0.01,14.25c-0.06,12.23-0.28,24.47-0.2,36.71
	c0.07,11.86,0.5,23.72,0.66,35.58c0.1,7.92-0.03,15.83,0.01,23.74c0,1.79-0.21,3.82,0.54,5.31c1.16,2.29,1.15,4.6,1.22,6.96
	c0.17,5.72,0.33,11.45,0.4,17.17c0.26,20.5,0.47,41,0.74,61.5c0.2,15.45,0.45,30.91,0.72,46.36c0.2,11.14,0.53,22.29,0.7,33.43
	c0.29,19.54,0.5,39.09,0.73,58.63c0.1,8.39,0.16,16.78,0.25,25.17c0.24,22.65,0.48,45.3,0.71,67.95c0.03,2.87-0.12,5.75-0.06,8.62
	c0.23,9.7,0.59,19.4,0.77,29.1c0.23,13.07,0.3,26.14,0.5,39.2c0.2,13.78,0.51,27.56,0.69,41.34c0.15,12.1,0.16,24.21,0.27,36.31
	c0.14,16.66,0.31,33.32,0.48,49.98c0.11,11.39,0.21,22.79,0.37,34.18c0.15,9.95,0.46,19.9,0.56,29.84
	c0.11,12.09,0.02,24.18,0.14,36.27c0.12,11.62,0.4,23.24,0.6,34.86c0.02,1.07-0.05,2.16,0.04,3.23c0.8,9.81,0.92,19.61,0.02,29.43
	c-0.31,3.33-0.22,6.7-0.29,10.06c-0.03,1.73,0.24,3.35,2.11,4.11c0.13-0.11,0.25-0.21,0.37-0.31l-0.08,2.75
	c-0.38-0.01-0.75-0.07-1.1-0.18c-2.45-0.78-4.42,0.11-6.47,1.11c-1.18,0.57-2.42,1.03-3.59,1.64c-3.81,1.99-7.83,2.81-12.13,2.63
	c-4.65-0.2-9.31-0.15-13.97-0.2c-2.27-0.03-4.55,0.03-6.82-0.07c-4.18-0.19-8.35-0.55-12.53-0.7c-6.71-0.23-13.42-0.29-20.13-0.51
	c-7.43-0.23-14.85-0.43-22.27-0.87c-9.18-0.55-18.36,0.78-27.58-0.42c-8.29-1.08-16.7-1.19-25.06-1.58
	c-4.67-0.23-9.36-0.03-14.03-0.27c-3.81-0.19-7.59-1-11.4-1.09c-8.03-0.19-16.06-0.07-24.09-0.1c-2.36-0.01-4.75,0.12-7.08-0.18
	c-10.37-1.34-20.77-1.57-31.19-1.35c-6.1,0.13-12.19,0.41-18.28,0.57c-1.42,0.03-2.84-0.22-4.26-0.21
	c-4.31,0.03-8.65,0.44-12.93,0.1c-5.29-0.42-10.47,0.24-15.69,0.65c-1.19,0.09-2.44,0.35-3.57,0.1c-6.89-1.53-13.82-0.5-20.73-0.4
	c-5.6,0.07-11.15,0.54-16.81,0.07c-6.64-0.55-13.38,0.14-20.08,0.39c-3.94,0.15-7.87,0.49-11.81,0.73
	c-3.53,0.21-7.13,0.07-10.59,0.7c-2.6,0.48-5.14,0.93-7.78,0.8c-2.86-0.14-5.72-0.42-8.59-0.47c-7.52-0.13-15.05-0.14-22.58-0.26
	c-7.54-0.12-15.08-0.38-22.62-0.47c-10.07-0.12-20.15-0.4-30.21-0.14c-8.31,0.23-16.48-0.71-24.68-1.68
	c-0.94-0.11-1.88-0.29-2.83-0.32c-9.81-0.32-19.63-0.6-29.45-0.9c-2.03-0.06-4.07-0.1-6.11-0.17c-9.93-0.32-19.86-0.72-29.79-0.94
	c-4.41-0.1-8.84,0.34-13.25,0.19c-6.45-0.21-12.9-0.8-19.35-1.1c-11.95-0.55-23.92,0.24-35.89-0.67c-9.3-0.7-18.66-0.69-28-0.98
	c-2.03-0.07-4.08,0.06-6.11-0.13c-10.15-0.92-20.3-1.6-30.51-1.33c-4.43,0.13-8.88,0.21-13.29-0.08
	c-8.94-0.58-17.86-1.69-26.78,0.21c-0.55,0.11-1.19-0.06-1.77-0.17c-2.45-0.47-4.89-1.05-7.35-1.41c-7.35-1.1-14.7-2.04-22.14-0.79
	C156.749,1766.819,155.639,1766.579,154.579,1766.429z"/>
</svg>
