<?xml version="1.0" encoding="utf-8"?>
<!-- Generator: Adobe Illustrator 22.0.1, SVG Export Plug-In . SVG Version: 6.00 Build 0)  -->
<svg version="1.1" id="Layer_1" xmlns="http://www.w3.org/2000/svg" xmlns:xlink="http://www.w3.org/1999/xlink" x="0px" y="0px"
	 viewBox="0 0 71 1556.9" style="enable-background:new 0 0 71 1556.9;" xml:space="preserve">
<style type="text/css">
	.st0{fill:none;}
</style>
<path class="st0" d="M2419.1-877.4"/>
<path class="st0" d="M2163.1,610.2"/>
<g>
	<path d="M59.9,3.6c-4-0.4-8.1-1.1-12.1-0.9c-4.1,0.2-8,0.1-12.1-0.2C31.9,2.1,27.9,2.5,24,2.6c1-4.3,1-4.3-2-5.8
		c-5.1,3.8-6.2,5.4-7.8,11c-0.3,1.1-0.9,2.2-1.2,3.4c-0.5,2.1-1.2,4.2-1.2,6.3C11.8,29.5,12,41.6,12,53.7c0,8.4,0,16.7-0.1,25.1
		c-0.2,15.9-0.4,31.8-0.6,47.7c-0.1,11.3-0.1,22.7-0.2,34c-0.1,9.2-0.2,18.4-0.4,27.6c-0.1,6.1-0.5,12.2-0.6,18.3
		c-0.2,14.7-0.2,29.4-0.4,44.1c-0.1,8.2-0.2,16.5-0.3,24.7c0,6.6,0.1,13.1,0,19.7c-0.2,11.1-0.6,22.2-0.7,33.3
		c-0.2,12.4-0.1,24.9-0.2,37.3c0,7.2-0.1,14.3-0.2,21.5c-0.1,7.9-0.1,15.8-0.2,23.6C8,419,8,427.4,7.9,435.7c0,6.1,0.1,12.2,0,18.3
		c-0.1,11.7-0.4,23.4-0.5,35.1c-0.1,12.3-0.2,24.6-0.3,36.9c-0.1,12.6-0.3,25.1-0.4,37.7c-0.1,17.9-0.1,35.9-0.2,53.8
		c0,7.2-0.2,14.3-0.2,21.5c0,9.7,0.1,19.4,0,29c-0.1,10-0.3,20.1-0.4,30.1c-0.1,13.1-0.2,26.3-0.3,39.4c-0.1,9.9-0.4,19.8-0.5,29.8
		c-0.2,15.7-0.4,31.3-0.5,47c-0.2,14.9-0.4,29.9-0.5,44.8c0,1.3,0.2,2.6,0.5,3.9c0,0-0.1,0-0.1,0c0.1,3.3,0.2,6.3,0.2,9.4
		c0.1,11.6,0.2,23.2,0.3,34.8c0.2,12.9,0.4,25.8,0.6,38.7C6,962,6.2,977.9,6.4,993.8c0.1,7,0.2,14.1,0.2,21.1c0.1,8,0.2,16,0.3,24
		c0.1,7.1,0.2,14.1,0.2,21.2c0.1,11.4,0.2,22.7,0.4,34.1c0.2,12.3,0.4,24.6,0.5,36.9c0.1,9.7,0.2,19.4,0.3,29
		c0.2,11.7,0.5,23.4,0.6,35.1c0.2,11.7,0.2,23.4,0.3,35.1c0.1,12.2,0.3,24.4,0.5,36.6c0.1,9.4,0.1,18.9,0.3,28.3
		c0.1,10.6,0.4,21.3,0.5,31.9c0.1,9.6,0.1,19.1,0.2,28.7c0.1,9.3,0.3,18.6,0.4,28c0.1,12.7,0.2,25.3,0.2,38c0,9.6,0,19.1,0,28.7
		c0,6.4,0.1,12.9,0.3,19.3c0.3,7.3,0.9,14.6,1.1,21.8c0.2,7.3,0.3,14.6,0.1,21.9c-0.2,6.2,1.6,12.3,0.8,18.6
		c-0.1,0.7,0.6,1.5,0.9,2.3c0.4,1.5,0.9,2.9,1.2,4.4c0.7,3.3,1.5,6.4,4.8,8.1c0.8,0.4,1.5,1.3,2,2c3.6,5.2,9.1,5.8,14.6,6
		c2.2,0.1,4.2,0.2,6.2,1.2c7.6,3.6,13.8-1.9,17-7.7c0.6-1.1,0.5-2.8,0.4-4.2c-0.2-2.5-1-4.9-1-7.3c-0.1-8.6,0.1-17.2,0.1-25.8
		c0-8.4-0.1-16.7,0-25.1c0.1-16.3,0.6-32.5,0.3-48.8c-0.4-18.3-0.2-36.6-0.3-54.8c0-7.4-0.2-14.8-0.3-22.2
		c-0.1-7.8-0.4-15.7-0.5-23.5c0-4.9,0.3-9.8,0.3-14.7c0-3.6-0.6-7.2-0.6-10.8c0-4.9,0.3-9.8,0.3-14.7c0-11.8-0.1-23.6-0.2-35.5
		c-0.1-7.3-0.1-14.6-0.2-21.8c-0.1-6.3-0.1-12.7-0.2-19c-0.1-7.5-0.1-15-0.8-22.4c-0.3-2.8,0.1-5.7,0.1-8.6c0-9.3,0-18.6-0.1-27.9
		c-0.1-11.1-0.2-22.3-0.3-33.4c-0.2-11.8-0.5-23.7-0.6-35.5c-0.1-11.1,0-22.2-0.1-33.4c-0.1-11.1-0.5-22.2-0.6-33.3
		c-0.1-9.7,0.1-19.4,0-29c-0.1-6.3-0.5-12.7-0.6-19c-0.1-5.6,0.1-11.3,0-16.9c-0.2-8.2-0.7-16.5-1-24.7c-0.3-9.1-1.1-18.2-0.6-27.2
		c0.5-9-0.3-17.9-0.4-26.9c0-5.7-0.6-11.4,0.5-17.2c0.4-2.3,0.6-4.6,0.7-7c0.2-0.5,0.5-1,0.7-1.6c0.2-0.6,0.2-1.2,0.3-1.8
		c1.5-9.9,1.1-19.8-0.7-29.6c-0.3-1.9-0.7-3.8-0.7-5.7c0-8.6,0.1-17.2,0.3-25.8c0.2-15.5,0.4-31.1,0.6-46.6
		c0.2-16.7,0.3-33.4,0.5-50.2c0.1-11.1,0.4-22.2,0.6-33.3c0.2-14.2,0.2-28.4,0.3-42.6c0.1-13.3,0.2-26.7,0.3-40
		c0.1-10.7,0-21.5,0.1-32.2c0.2-13.6,0.6-27.2,0.8-40.8c0.2-16.7,0.2-33.4,0.4-50.2c0.2-21.7,0.7-43.5,0.9-65.2
		c0.1-15.6,0-31.3,0.1-46.9c0.1-12.9,0.4-25.8,0.6-38.7c0.1-7.5,0.4-15,0.5-22.5c0.2-14.1,0.4-28.2,0.6-42.2
		c0.2-14.3,0.5-28.7,0.7-43c0.1-10.9,0.2-21.7,0.3-32.6c0.1-11.2,0.2-22.4,0.3-33.6c0.1-11.6,0.3-23.2,0.4-34.8
		c0.1-10.3,0.2-20.5,0.4-30.8c0.1-8.6,0.3-17.2,0.5-25.8c0.1-6.2-1-12.4,0.4-18.5c0-0.1,0-0.2,0-0.4c0.6-4.8-1.3-10.1,3-14
		C64.6,6.1,62.9,3.9,59.9,3.6z"/>
</g>
</svg>
