<?xml version="1.0" encoding="utf-8"?>
<!-- Generator: Adobe Illustrator 22.0.1, SVG Export Plug-In . SVG Version: 6.00 Build 0)  -->
<svg version="1.1" id="Layer_1" xmlns="http://www.w3.org/2000/svg" xmlns:xlink="http://www.w3.org/1999/xlink" x="0px" y="0px"
	 viewBox="0 0 841.89 595.276" enable-background="new 0 0 841.89 595.276" xml:space="preserve">
<path fill="none" d="M2419.057-1858.809"/>
<path fill="none" d="M2163.11-371.306"/>
<g>
	<path d="M1999.236-1660.235c-3.89-1.086-7.767-2.433-11.742-2.934c-4.033-0.509-7.958-1.213-11.897-2.216
		c-3.757-0.957-7.692-1.219-11.561-1.788c1.683-4.086,1.683-4.086-1.055-6.044c-5.672,2.905-6.983,4.261-9.472,9.55
		c-0.506,1.076-1.24,2.05-1.703,3.142c-0.833,1.963-1.886,3.92-2.242,5.984c-2.056,11.895-3.903,23.826-5.886,35.734
		c-1.374,8.251-2.812,16.491-4.29,24.724c-2.808,15.648-5.688,31.282-8.493,46.93c-2.002,11.171-3.906,22.359-5.9,33.531
		c-1.617,9.058-3.258,18.112-4.979,27.151c-1.139,5.982-2.555,11.913-3.644,17.903c-2.627,14.461-5.121,28.945-7.694,43.416
		c-1.443,8.117-2.973,16.219-4.398,24.34c-1.136,6.474-2.078,12.983-3.273,19.446c-2.017,10.909-4.254,21.777-6.237,32.692
		c-2.221,12.227-4.252,24.488-6.385,36.73c-1.23,7.061-2.503,14.115-3.749,21.173c-1.371,7.763-2.734,15.527-4.098,23.291
		c-1.447,8.24-2.914,16.478-4.328,24.724c-1.029,6-1.914,12.026-2.994,18.017c-2.078,11.524-4.296,23.023-6.369,34.548
		c-2.181,12.12-4.244,24.261-6.39,36.388c-2.188,12.361-4.452,24.709-6.614,37.075c-3.088,17.667-6.103,35.347-9.169,53.018
		c-1.226,7.069-2.538,14.123-3.75,21.194c-1.635,9.54-3.157,19.099-4.828,28.633c-1.734,9.896-3.614,19.766-5.381,29.656
		c-2.313,12.945-4.543,25.905-6.875,38.847c-1.76,9.765-3.656,19.505-5.433,29.267c-2.805,15.412-5.562,30.832-8.338,46.249
		c-2.649,14.714-5.32,29.423-7.912,44.147c-0.224,1.273-0.23,2.597-0.18,3.909c-0.029,0-0.055,0-0.085,0
		c-0.463,3.235-0.864,6.292-1.344,9.336c-1.806,11.455-3.667,22.901-5.45,34.359c-1.985,12.751-3.901,25.512-5.859,38.266
		c-2.41,15.704-4.826,31.407-7.254,47.108c-1.076,6.959-2.191,13.911-3.282,20.867c-1.241,7.91-2.472,15.821-3.712,23.731
		c-1.092,6.967-2.186,13.933-3.284,20.898c-1.768,11.217-3.561,22.429-5.303,33.65c-1.89,12.168-3.716,24.346-5.602,36.515
		c-1.483,9.57-3.053,19.126-4.516,28.698c-1.771,11.579-3.419,23.176-5.215,34.751c-1.795,11.572-3.734,23.121-5.557,34.689
		c-1.898,12.041-3.716,24.094-5.602,36.137c-1.46,9.324-3,18.635-4.452,27.96c-1.636,10.509-3.182,21.032-4.825,31.54
		c-1.475,9.438-3.056,18.859-4.54,28.296c-1.449,9.213-2.792,18.442-4.256,27.652c-1.99,12.512-4.029,25.017-6.091,37.518
		c-1.557,9.436-3.223,18.854-4.764,28.292c-1.038,6.358-2.044,12.724-2.879,19.111c-0.945,7.23-1.548,14.505-2.55,21.726
		c-1.002,7.222-2.112,14.441-3.55,21.586c-1.228,6.102-0.497,12.412-2.263,18.438c-0.205,0.698,0.35,1.596,0.457,2.413
		c0.199,1.525,0.404,3.056,0.468,4.591c0.14,3.323,0.391,6.537,3.404,8.781c0.729,0.543,1.25,1.479,1.647,2.336
		c2.653,5.72,7.99,7.221,13.413,8.352c2.152,0.449,4.143,0.92,5.968,2.19c6.865,4.781,13.957,0.467,18.008-4.744
		c0.8-1.029,0.998-2.666,1.115-4.052c0.207-2.454-0.148-4.977,0.236-7.392c1.349-8.493,2.942-16.946,4.386-25.424
		c1.405-8.25,2.662-16.525,4.123-24.764c2.838-16.008,6.042-31.946,8.434-48.039c2.688-18.081,5.887-36.086,8.817-54.132
		c1.187-7.308,2.275-14.633,3.366-21.957c1.157-7.765,2.187-15.551,3.423-23.303c0.771-4.835,1.935-9.607,2.709-14.442
		c0.566-3.54,0.623-7.163,1.197-10.701c0.783-4.827,1.951-9.591,2.759-14.415c1.952-11.658,3.8-23.334,5.673-35.006
		c1.154-7.19,2.272-14.386,3.418-21.578c0.996-6.254,2.04-12.5,3.004-18.758c1.139-7.393,2.4-14.765,2.931-22.247
		c0.201-2.839,1.09-5.625,1.568-8.451c1.551-9.184,3.082-18.371,4.573-27.565c1.781-10.985,3.549-21.972,5.253-32.969
		c1.813-11.7,3.487-23.422,5.332-35.117c1.733-10.984,3.685-21.933,5.401-32.919c1.716-10.985,3.171-22.012,4.908-32.993
		c1.512-9.562,3.347-19.072,4.87-28.632c0.996-6.252,1.603-12.564,2.541-18.826c0.832-5.561,2.013-11.072,2.799-16.639
		c1.151-8.153,2.043-16.343,3.128-24.506c1.196-8.998,1.922-18.11,3.892-26.94c1.962-8.794,2.662-17.709,4.089-26.543
		c0.912-5.648,1.356-11.373,3.328-16.839c0.782-2.168,1.312-4.431,1.864-6.758c0.308-0.463,0.619-0.943,0.904-1.443
		c0.29-0.51,0.431-1.108,0.616-1.674c3.106-9.531,4.35-19.326,4.21-29.327c-0.027-1.897-0.063-3.832,0.254-5.69
		c1.443-8.476,3.002-16.933,4.536-25.394c2.77-15.284,5.564-30.564,8.323-45.85c2.97-16.455,5.884-32.921,8.873-49.373
		c1.986-10.931,4.109-21.838,6.079-32.772c2.521-13.989,4.954-27.994,7.421-41.992c2.317-13.145,4.652-26.286,6.938-39.436
		c1.841-10.591,3.533-21.209,5.452-31.785c2.43-13.392,5.101-26.74,7.525-40.133c2.978-16.458,5.752-32.952,8.717-49.412
		c3.855-21.405,7.882-42.779,11.702-64.189c2.744-15.382,5.201-30.815,7.918-46.201c2.241-12.691,4.662-25.351,7.031-38.019
		c1.38-7.377,2.859-14.735,4.218-22.116c2.55-13.85,5.027-27.713,7.569-41.564c2.589-14.108,5.257-28.201,7.823-42.313
		c1.942-10.68,3.774-21.381,5.661-32.071c1.947-11.032,3.886-22.065,5.855-33.093c2.037-11.408,4.1-22.812,6.16-34.217
		c1.826-10.107,3.639-20.217,5.502-30.318c1.56-8.457,3.169-16.904,4.783-25.351c1.158-6.063,1.07-12.364,3.469-18.191
		c0.044-0.107,0.011-0.242,0.045-0.355c1.394-4.654,0.427-10.185,5.313-13.346
		C2003.496-1656.959,2002.134-1659.426,1999.236-1660.235z"/>
	<path d="M1911.917-709.547c2.1,0,4.2,0,6.3-0.001c-2.124-0.001-4.248-0.001-6.373-0.001
		C1911.868-709.549,1911.893-709.548,1911.917-709.547z"/>
</g>
<path d="M780.372,505.127c-1.519-0.09-2.645-0.248-3.763-0.207c-5.984,0.219-11.977,0.339-17.944,0.786
	c-5.11,0.383-10.187,1.183-15.284,1.753c-1.779,0.199-3.577,0.226-5.361,0.388c-10.273,0.935-20.572,0.845-30.874,0.966
	c-12.697,0.149-25.39,0.693-38.084,1.058c-3.471,0.1-6.942,0.185-10.413,0.258c-9.345,0.195-18.691,0.346-28.034,0.583
	c-4.053,0.103-8.111,0.646-12.15,0.507c-6.568-0.226-13.116-0.982-19.684-1.258c-4.886-0.205-9.789-0.024-14.684,0.018
	c-7.43,0.064-14.86,0.136-22.289,0.244c-8.853,0.128-17.706,0.334-26.559,0.436c-6.709,0.077-13.42-0.017-20.128,0.073
	c-9.708,0.13-19.414,0.413-29.121,0.53c-14.724,0.177-29.449,0.227-44.173,0.407c-15.584,0.19-31.167,0.448-46.75,0.718
	c-11.735,0.203-23.47,0.403-35.202,0.729c-14.604,0.405-29.202,1.017-43.806,1.393c-12.216,0.314-24.437,0.409-36.655,0.617
	c-9.079,0.155-18.156,0.44-27.235,0.474c-6.341,0.024-12.683-0.356-19.026-0.42c-10.784-0.11-21.571-0.025-32.354-0.192
	c-7.891-0.122-15.777-0.521-23.666-0.782c-0.714-0.024-1.432,0.066-2.289,0.11c-0.386,0.779-0.784,1.583-1.422,2.87
	c0.893,0.087,1.646,0.392,2.176,0.168c1.609-0.681,1.575-0.761,3.84,0.79c-2.89,0.193-5.134,0.344-8.103,0.542
	c0.662-1.821,1.076-2.957,1.536-4.221c-4.37-0.554-8.266,0.18-11.173,3.878c-3.389,4.31-7.859,6.267-13.335,6.035
	c-0.059,0.005-0.119,0.01-0.179,0.015c-7.314,1.589-14.63,0.683-21.991,0.315c-8.968-0.449-17.974-0.111-26.962-0.233
	c-6.829-0.093-13.655-0.389-20.482-0.553c-1.064-0.026-2.336-0.175-3.163,0.319c-2.897,1.729-5.916,1.279-9.018,1.129
	c-2.666-0.129-5.403-0.037-8.025,0.429c-4.358,0.775-5.322,0.833-8.017,0.327c-3.789-0.71-7.134-2.479-9.803-4.992
	c-1.464-1.378-2.105-3.975-2.441-6.128c-0.551-3.53-0.772-7.149-0.729-10.725c0.052-4.294,0.635-8.578,0.788-12.874
	c0.148-4.165,0.159-8.343,0.023-12.509c-0.207-6.341-0.572-12.678-0.909-19.015c-0.603-11.352-1.284-22.699-1.832-34.054
	c-0.237-4.909-0.153-9.833-0.334-14.746c-0.442-11.971-0.924-23.94-1.448-35.907c-0.43-9.81-0.905-19.618-1.431-29.423
	c-0.584-10.874-1.285-21.742-1.865-32.617c-0.395-7.411-0.676-14.828-0.998-22.243c-0.452-10.409-0.932-20.818-1.33-31.23
	c-0.33-8.613-0.564-17.23-0.833-25.845c-0.379-12.095-0.782-24.19-1.115-36.287c-0.175-6.354-0.157-12.713-0.338-19.067
	c-0.411-14.49-0.978-28.976-1.316-43.468c-0.271-11.618-0.475-23.244-0.349-34.863c0.051-4.719,1.267-9.415,1.553-14.145
	c0.182-3.017,2.078-4.538,4.169-5.782c3.177-1.889,6.559-2.957,10.492-2.967c7.864-0.02,15.723-0.802,23.59-1.126
	c4.786-0.197,9.584-0.096,14.375-0.179c15.327-0.267,30.654-0.551,45.98-0.841c12.096-0.229,24.192-0.581,36.289-0.692
	c26.485-0.244,52.971-0.335,79.456-0.562c9.925-0.085,19.848-0.446,29.773-0.536c5.116-0.046,10.235,0.339,15.353,0.327
	c6.913-0.015,13.825-0.29,20.739-0.337c14.635-0.098,29.272-0.086,43.907-0.189c6.458-0.045,12.914-0.349,19.372-0.377
	c9.218-0.04,18.437,0.132,27.655,0.09c10.257-0.047,20.514-0.287,30.771-0.342c11.606-0.063,23.213,0.017,34.82-0.023
	c11.972-0.041,23.944-0.104,35.915-0.245c16.304-0.192,32.606-0.484,48.909-0.703c19.175-0.258,38.351-0.455,57.526-0.733
	c17.36-0.251,34.719-0.602,52.079-0.857c11.013-0.162,22.027-0.25,33.041-0.333c13.437-0.101,26.873-0.169,40.31-0.239
	c4.181-0.022,8.365,0.082,12.544-0.019c12.566-0.301,25.129-0.778,37.696-0.982c7.373-0.12,14.754,0.081,22.128,0.265
	c6.643,0.166,12.847,5.633,13.922,12.204c0.345,2.109,0.492,4.265,0.537,6.404c0.125,5.874,0.211,11.75,0.167,17.625
	c-0.01,1.369-0.627,2.729-0.918,4.103c-0.392,1.855-1.007,3.712-1.058,5.581c-0.199,7.3-0.139,14.607-0.324,21.907
	c-0.098,3.843-1.047,7.66-3.08,10.923c-1.206,1.937-1.687,3.912-1.725,6.153c-0.155,9.193-0.348,18.377-0.325,27.579
	c0.07,28.276-0.331,56.554-0.611,84.831c-0.171,17.242-0.576,34.482-0.657,51.723c-0.085,18.06,0.111,36.12,0.146,54.18
	c0.029,14.75-0.093,29.5,0.026,44.249c0.103,12.811,0.428,25.62,0.698,38.429c0.098,4.647,0.39,9.291,0.451,13.938
	c0.029,2.24-0.272,4.484-0.471,7.415C808.021,493.344,788.375,501.884,780.372,505.127z"/>
</svg>
