<?xml version="1.0" encoding="utf-8"?>
<!-- Generator: Adobe Illustrator 21.1.0, SVG Export Plug-In . SVG Version: 6.00 Build 0)  -->
<svg version="1.1" id="Layer_1" xmlns="http://www.w3.org/2000/svg" xmlns:xlink="http://www.w3.org/1999/xlink" x="0px" y="0px"
	 viewBox="0 0 453.8 793.2" style="enable-background:new 0 0 453.8 793.2;" xml:space="preserve">
<style type="text/css">
	.st0{fill:none;}
</style>
<path class="st0" d="M2221.9-1757.7"/>
<path class="st0" d="M1966-270.1"/>
<g>
	<path d="M1802.1-1559.1c-3.9-1.1-7.8-2.4-11.7-2.9c-4-0.5-8-1.2-11.9-2.2c-3.8-1-7.7-1.2-11.6-1.8c1.7-4.1,1.7-4.1-1.1-6
		c-5.7,2.9-7,4.3-9.5,9.6c-0.5,1.1-1.2,2.1-1.7,3.1c-0.8,2-1.9,3.9-2.2,6c-2.1,11.9-3.9,23.8-5.9,35.7c-1.4,8.3-2.8,16.5-4.3,24.7
		c-2.8,15.6-5.7,31.3-8.5,46.9c-2,11.2-3.9,22.4-5.9,33.5c-1.6,9.1-3.3,18.1-5,27.2c-1.1,6-2.6,11.9-3.6,17.9
		c-2.6,14.5-5.1,28.9-7.7,43.4c-1.4,8.1-3,16.2-4.4,24.3c-1.1,6.5-2.1,13-3.3,19.4c-2,10.9-4.3,21.8-6.2,32.7
		c-2.2,12.2-4.3,24.5-6.4,36.7c-1.2,7.1-2.5,14.1-3.7,21.2c-1.4,7.8-2.7,15.5-4.1,23.3c-1.4,8.2-2.9,16.5-4.3,24.7c-1,6-1.9,12-3,18
		c-2.1,11.5-4.3,23-6.4,34.5c-2.2,12.1-4.2,24.3-6.4,36.4c-2.2,12.4-4.5,24.7-6.6,37.1c-3.1,17.7-6.1,35.3-9.2,53
		c-1.2,7.1-2.5,14.1-3.8,21.2c-1.6,9.5-3.2,19.1-4.8,28.6c-1.7,9.9-3.6,19.8-5.4,29.7c-2.3,12.9-4.5,25.9-6.9,38.8
		c-1.8,9.8-3.7,19.5-5.4,29.3c-2.8,15.4-5.6,30.8-8.3,46.2c-2.6,14.7-5.3,29.4-7.9,44.1c-0.2,1.3-0.2,2.6-0.2,3.9h-0.1
		c-0.5,3.2-0.9,6.3-1.3,9.3c-1.8,11.5-3.7,22.9-5.4,34.4c-2,12.8-3.9,25.5-5.9,38.3c-2.4,15.7-4.8,31.4-7.3,47.1
		c-1.1,7-2.2,13.9-3.3,20.9c-1.2,7.9-2.5,15.8-3.7,23.7c-1.1,7-2.2,13.9-3.3,20.9c-1.8,11.2-3.6,22.4-5.3,33.7
		c-1.9,12.2-3.7,24.3-5.6,36.5c-1.5,9.6-3.1,19.1-4.5,28.7c-1.8,11.6-3.4,23.2-5.2,34.8c-1.8,11.6-3.7,23.1-5.6,34.7
		c-1.9,12-3.7,24.1-5.6,36.1c-1.5,9.3-3,18.6-4.5,28c-1.6,10.5-3.2,21-4.8,31.5c-1.5,9.4-3.1,18.9-4.5,28.3
		c-1.4,9.2-2.8,18.4-4.3,27.7c-2,12.5-4,25-6.1,37.5c-1.6,9.4-3.2,18.9-4.8,28.3c-1,6.4-2,12.7-2.9,19.1c-0.9,7.2-1.5,14.5-2.6,21.7
		c-1,7.2-2.1,14.4-3.6,21.6c-1.2,6.1-0.5,12.4-2.3,18.4c-0.2,0.7,0.3,1.6,0.5,2.4c0.2,1.5,0.4,3.1,0.5,4.6c0.1,3.3,0.4,6.5,3.4,8.8
		c0.7,0.5,1.2,1.5,1.6,2.3c2.7,5.7,8,7.2,13.4,8.4c2.2,0.4,4.1,0.9,6,2.2c6.9,4.8,14,0.5,18-4.7c0.8-1,1-2.7,1.1-4.1
		c0.2-2.5-0.1-5,0.2-7.4c1.3-8.5,2.9-16.9,4.4-25.4c1.4-8.2,2.7-16.5,4.1-24.8c2.8-16,6-31.9,8.4-48c2.7-18.1,5.9-36.1,8.8-54.1
		c1.2-7.3,2.3-14.6,3.4-22c1.2-7.8,2.2-15.6,3.4-23.3c0.8-4.8,1.9-9.6,2.7-14.4c0.6-3.5,0.6-7.2,1.2-10.7c0.8-4.8,2-9.6,2.8-14.4
		c2-11.7,3.8-23.3,5.7-35c1.2-7.2,2.3-14.4,3.4-21.6c1-6.3,2-12.5,3-18.8c1.1-7.4,2.4-14.8,2.9-22.2c0.2-2.8,1.1-5.6,1.6-8.5
		c1.6-9.2,3.1-18.4,4.6-27.6c1.8-11,3.5-22,5.3-33c1.8-11.7,3.5-23.4,5.3-35.1c1.7-11,3.7-21.9,5.4-32.9c1.7-11,3.2-22,4.9-33
		c1.5-9.6,3.3-19.1,4.9-28.6c1-6.3,1.6-12.6,2.5-18.8c0.8-5.6,2-11.1,2.8-16.6c1.2-8.2,2-16.3,3.1-24.5c1.2-9,1.9-18.1,3.9-26.9
		c2-8.8,2.7-17.7,4.1-26.5c0.9-5.6,1.4-11.4,3.3-16.8c0.8-2.2,1.3-4.4,1.9-6.8c0.3-0.5,0.6-0.9,0.9-1.4s0.4-1.1,0.6-1.7
		c3.1-9.5,4.3-19.3,4.2-29.3c0-1.9-0.1-3.8,0.3-5.7c1.4-8.5,3-16.9,4.5-25.4c2.8-15.3,5.6-30.6,8.3-45.8c3-16.5,5.9-32.9,8.9-49.4
		c2-10.9,4.1-21.8,6.1-32.8c2.5-14,5-28,7.4-42c2.3-13.1,4.7-26.3,6.9-39.4c1.8-10.6,3.5-21.2,5.5-31.8c2.4-13.4,5.1-26.7,7.5-40.1
		c3-16.5,5.8-33,8.7-49.4c3.9-21.4,7.9-42.8,11.7-64.2c2.7-15.4,5.2-30.8,7.9-46.2c2.2-12.7,4.7-25.4,7-38
		c1.4-7.4,2.9-14.7,4.2-22.1c2.6-13.8,5-27.7,7.6-41.6c2.6-14.1,5.3-28.2,7.8-42.3c1.9-10.7,3.8-21.4,5.7-32.1
		c1.9-11,3.9-22.1,5.9-33.1c2-11.4,4.1-22.8,6.2-34.2c1.8-10.1,3.6-20.2,5.5-30.3c1.6-8.5,3.2-16.9,4.8-25.4
		c1.2-6.1,1.1-12.4,3.5-18.2c0-0.1,0-0.2,0-0.4c1.4-4.7,0.4-10.2,5.3-13.3C1806.3-1555.8,1805-1558.3,1802.1-1559.1z"/>
	<path d="M1714.8-608.4c2.1,0,4.2,0,6.3,0C1718.9-608.4,1716.8-608.4,1714.8-608.4C1714.7-608.4,1714.7-608.4,1714.8-608.4z"/>
</g>
<path d="M432.6,37.1c-0.1,1.5-0.2,2.6-0.2,3.8c0.2,6,0.3,12,0.8,17.9c0.4,5.1,1.2,10.2,1.8,15.3c0.2,1.8,0.2,3.6,0.4,5.4
	c0.9,10.3,0.8,20.6,1,30.9c0.1,12.7,0.7,25.4,1.1,38.1c0.1,3.5,0.2,6.9,0.3,10.4c0.2,9.3,0.3,18.7,0.6,28c0.1,4.1,0.6,8.1,0.5,12.2
	c-0.2,6.6-1,13.1-1.3,19.7c-0.2,4.9,0,9.8,0,14.7c0.1,7.4,0.1,14.9,0.2,22.3c0.1,8.9,0.3,17.7,0.4,26.6c0.1,6.7,0,13.4,0.1,20.1
	c0.1,9.7,0.4,19.4,0.5,29.1c0.2,14.7,0.2,29.4,0.4,44.2c0.2,15.6,0.4,31.2,0.7,46.8c0.2,11.7,0.4,23.5,0.7,35.2
	c0.4,14.6,1,29.2,1.4,43.8c0.3,12.2,0.4,24.4,0.6,36.7c0.2,9.1,0.4,18.2,0.5,27.2c0,6.3-0.4,12.7-0.4,19c-0.1,10.8,0,21.6-0.2,32.4
	c-0.1,7.9-0.5,15.8-0.8,23.7c0,0.7,0.1,1.4,0.1,2.3c0.8,0.4,1.6,0.8,2.9,1.4c0.1-0.9,0.4-1.6,0.2-2.2c-0.7-1.6-0.8-1.6,0.8-3.8
	c0.2,2.9,0.3,5.1,0.5,8.1c-1.8-0.7-3-1.1-4.2-1.5c-0.6,4.4,0.2,8.3,3.9,11.2c4.3,3.4,6.3,7.9,6,13.3c0,0.1,0,0.1,0,0.2
	c1.6,7.3,0.7,14.6,0.3,22c-0.4,9-0.1,18-0.2,27c-0.1,6.8-0.4,13.7-0.6,20.5c0,1.1-0.2,2.3,0.3,3.2c1.7,2.9,1.3,5.9,1.1,9
	c-0.1,2.7,0,5.4,0.4,8c0.8,4.4,0.8,5.3,0.3,8c-0.7,3.8-2.5,7.1-5,9.8c-1.4,1.5-4,2.1-6.1,2.4c-3.5,0.6-7.1,0.8-10.7,0.7
	c-4.3-0.1-8.6-0.6-12.9-0.8c-4.2-0.1-8.3-0.2-12.5,0c-6.3,0.2-12.7,0.6-19,0.9c-11.4,0.6-22.7,1.3-34.1,1.8
	c-4.9,0.2-9.8,0.2-14.7,0.3c-12,0.4-23.9,0.9-35.9,1.4c-9.8,0.4-19.6,0.9-29.4,1.4c-10.9,0.6-21.7,1.3-32.6,1.9
	c-7.4,0.4-14.8,0.7-22.2,1c-10.4,0.5-20.8,0.9-31.2,1.3c-8.6,0.3-17.2,0.6-25.8,0.8c-12.1,0.4-24.2,0.8-36.3,1.1
	c-6.4,0.2-12.7,0.2-19.1,0.3c-14.5,0.4-29,1-43.5,1.3c-11.7,0.2-23.3,0.4-34.9,0.3c-4.7-0.1-9.4-1.3-14.1-1.6
	c-3-0.2-4.5-2.1-5.8-4.2c-1.9-3.2-3-6.6-3-10.5c0-7.9-0.8-15.7-1.1-23.6c-0.2-4.8-0.1-9.6-0.2-14.4c-0.3-15.3-0.6-30.7-0.8-46
	c-0.2-12.1-0.6-24.2-0.7-36.3c-0.2-26.5-0.3-53-0.6-79.5c-0.1-9.9-0.4-19.8-0.5-29.8c0-5.1,0.3-10.2,0.3-15.4
	c0-6.9-0.3-13.8-0.3-20.7c-0.1-14.6-0.1-29.3-0.2-43.9c0-6.5-0.3-12.9-0.4-19.4c0-9.2,0.1-18.4,0.1-27.7c0-10.3-0.3-20.5-0.3-30.8
	c-0.1-11.6,0-23.2,0-34.8c0-12-0.1-23.9-0.2-35.9c-0.2-16.3-0.5-32.6-0.7-48.9c-0.3-19.2-0.5-38.4-0.7-57.5
	c-0.3-17.4-0.6-34.7-0.9-52.1c-0.2-11-0.2-22-0.3-33C-2.9,113.8-3,100.3-3,86.9c0-4.2,0.1-8.4,0-12.5c-0.3-12.6-0.8-25.1-1-37.7
	c-0.1-7.4,0.1-14.8,0.3-22.1C-3.5,8,1.9,1.8,8.5,0.7c2.1-0.3,4.3-0.5,6.4-0.5C20.8,0.1,26.7,0,32.5,0c1.4,0,2.7,0.6,4.1,0.9
	c1.9,0.4,3.7,1,5.6,1.1c7.3,0.2,14.6,0.1,21.9,0.3c3.8,0.1,7.7,1,10.9,3.1c1.9,1.2,3.9,1.7,6.2,1.7c9.2,0.2,18.4,0.3,27.6,0.3
	c28.3-0.1,56.6,0.3,84.8,0.6c17.2,0.2,34.5,0.6,51.7,0.7c18.1,0.1,36.1-0.1,54.2-0.1c14.8,0,29.5,0.1,44.2,0
	c12.8-0.1,25.6-0.4,38.4-0.7c4.6-0.1,9.3-0.4,13.9-0.5c2.2,0,4.5,0.3,7.4,0.5C420.8,9.4,429.3,29.1,432.6,37.1z"/>
</svg>
